<?xml version="1.0" standalone="no"?>
<!DOCTYPE svg PUBLIC "-//W3C//DTD SVG 20010904//EN"
 "http://www.w3.org/TR/2001/REC-SVG-20010904/DTD/svg10.dtd">
<svg version="1.0" xmlns="http://www.w3.org/2000/svg"
 width="512.000000pt" height="512.000000pt" viewBox="0 0 512.000000 512.000000"
 preserveAspectRatio="xMidYMid meet">
<metadata>
Created by potrace 1.14, written by Peter Selinger 2001-2017
</metadata>
<g transform="translate(0.000000,512.000000) scale(0.100000,-0.100000)"
fill="#000000" stroke="none">
<path d="M2450 5063 c-437 -16 -897 -143 -1260 -348 -773 -436 -1228 -1198
-1185 -1985 10 -178 10 -182 0 -360 -39 -728 347 -1439 1025 -1886 698 -460
1617 -575 2430 -304 438 146 809 383 1098 703 387 427 586 961 557 1492 -10
171 -10 176 0 355 31 567 -200 1136 -635 1570 -512 510 -1261 792 -2030 763z
m470 -198 c551 -75 1054 -315 1423 -678 293 -288 482 -629 564 -1016 25 -115
27 -146 28 -351 0 -196 -3 -239 -23 -339 -182 -902 -966 -1574 -2003 -1718
-171 -23 -527 -23 -699 0 -291 41 -562 122 -815 246 -635 311 -1059 837 -1187
1472 -20 99 -23 143 -23 339 1 206 3 236 27 351 147 686 645 1244 1368 1532
218 87 499 154 735 176 135 13 464 5 605 -14z m-2617 -3109 c45 -75 47 -81 47
-155 l-1 -76 -18 35 c-20 37 -95 254 -105 305 l-7 30 19 -30 c10 -16 39 -65
65 -109z m4566 23 c-36 -121 -104 -288 -154 -374 l-34 -60 -1 102 0 103 73
107 c40 60 88 136 107 171 18 34 35 61 37 59 2 -2 -11 -51 -28 -108z m-4079
-735 l-1 -139 -77 80 c-43 44 -101 111 -130 149 l-52 69 0 118 0 117 130 -128
130 -128 0 -138z m3705 40 c-2 -12 -60 -77 -127 -145 l-123 -124 -3 150 -3
150 43 35 c24 19 81 69 128 111 l85 77 3 -117 c1 -64 0 -126 -3 -137z m-3258
-195 l83 -44 0 -162 c0 -90 -2 -163 -5 -163 -12 0 -191 112 -266 166 l-79 57
0 153 0 153 93 -58 c50 -32 129 -78 174 -102z m2823 -56 l0 -158 -88 -56 c-48
-31 -126 -78 -174 -104 l-88 -47 0 169 0 168 88 42 c48 23 125 64 172 92 47
27 86 50 88 50 1 1 2 -70 2 -156z m-2417 -118 l117 -40 0 -172 0 -173 -92 34
c-51 18 -110 41 -130 49 l-38 16 0 166 c0 132 3 166 13 163 7 -2 66 -21 130
-43z m1887 -154 l0 -169 -57 -21 c-62 -23 -183 -61 -195 -61 -5 0 -8 77 -8
170 0 128 3 172 13 175 6 2 62 19 122 38 61 19 113 35 118 36 4 1 7 -75 7
-168z m-1425 39 l100 -17 3 -171 2 -172 -22 0 c-21 0 -138 19 -215 36 l-33 6
0 175 0 175 33 -8 c17 -4 77 -15 132 -24z m985 -164 l0 -173 -104 -17 c-58 -9
-116 -16 -130 -16 l-26 0 0 175 0 175 33 1 c17 0 68 6 112 13 44 7 88 14 98
15 16 1 17 -13 17 -173z m-445 -49 l0 -172 -70 -3 c-38 -2 -98 0 -132 3 l-63
7 0 173 0 174 133 -5 132 -4 0 -173z"/>
<path d="M2491 4534 c-29 -37 -27 -80 7 -113 26 -26 34 -28 137 -33 128 -7
157 2 175 56 9 28 8 40 -5 66 -22 43 -49 50 -180 50 -111 0 -114 -1 -134 -26z"/>
<path d="M1917 4472 c-100 -30 -137 -58 -137 -104 0 -41 17 -68 52 -83 27 -11
41 -10 97 6 36 11 83 24 105 30 95 26 118 125 39 167 -30 17 -55 14 -156 -16z"/>
<path d="M3183 4428 c-28 -30 -30 -87 -5 -116 20 -25 192 -92 233 -92 65 0
104 88 62 139 -23 26 -164 83 -223 88 -38 4 -49 1 -67 -19z"/>
<path d="M1304 4171 c-108 -76 -134 -103 -134 -144 0 -47 38 -87 83 -87 49 0
211 118 227 165 19 58 -25 115 -89 115 -10 0 -49 -22 -87 -49z"/>
<path d="M3807 4109 c-25 -14 -45 -64 -39 -95 3 -15 39 -56 93 -105 76 -67 94
-79 124 -79 70 0 110 80 69 138 -9 13 -50 52 -91 87 -79 67 -113 79 -156 54z"/>
<path d="M873 3715 c-28 -12 -74 -77 -122 -172 -27 -55 -27 -75 5 -112 20 -24
34 -31 62 -31 50 1 62 12 122 115 60 102 67 141 31 179 -28 30 -60 37 -98 21z"/>
<path d="M4236 3559 c-19 -15 -26 -30 -26 -56 0 -42 73 -211 102 -235 31 -27
84 -23 115 8 21 21 25 32 21 68 -7 55 -80 211 -106 225 -32 17 -77 13 -106
-10z"/>
<path d="M1940 3567 c0 -2 27 -52 60 -113 33 -60 60 -114 60 -120 0 -5 -29
-64 -65 -130 -36 -65 -65 -122 -65 -126 0 -5 24 -8 53 -8 l53 0 39 90 c22 50
42 90 46 90 6 0 60 -116 73 -157 6 -20 14 -23 62 -23 30 0 54 2 54 5 0 9 -78
169 -105 216 l-27 46 62 116 62 117 -49 0 -48 0 -40 -75 c-22 -41 -42 -75 -45
-75 -3 0 -20 34 -39 75 l-33 75 -54 0 c-30 0 -54 -1 -54 -3z"/>
<path d="M2340 3530 l0 -40 65 0 65 0 0 -210 0 -210 50 0 50 0 0 210 0 210 65
0 65 0 0 40 0 40 -180 0 -180 0 0 -40z"/>
<path d="M2770 3530 l0 -40 95 0 94 0 -44 -75 c-94 -158 -155 -282 -155 -313
l0 -32 160 0 160 0 0 40 0 40 -106 0 -106 0 38 68 c21 37 68 117 106 179 45
74 68 122 68 142 l0 31 -155 0 -155 0 0 -40z"/>
<path d="M619 3057 c-29 -22 -38 -53 -44 -153 -8 -119 1 -149 50 -170 30 -12
40 -12 68 0 43 18 54 47 61 170 7 129 -11 165 -84 165 -19 0 -42 -5 -51 -12z"/>
<path d="M4419 2895 c-38 -21 -48 -57 -51 -182 -3 -105 -2 -114 20 -135 30
-30 93 -31 123 -2 22 23 38 111 39 216 0 45 -5 62 -22 82 -28 32 -74 41 -109
21z"/>
<path d="M1145 2636 c-83 -36 -131 -146 -122 -278 11 -164 94 -244 231 -224
66 10 82 26 69 67 -6 22 -15 33 -24 30 -8 -2 -30 -9 -50 -14 -27 -8 -45 -7
-68 3 -51 21 -66 60 -66 170 0 109 15 149 65 170 34 14 85 7 111 -16 15 -14
18 -12 28 17 17 49 14 56 -29 73 -48 19 -104 20 -145 2z"/>
<path d="M1468 2634 c-94 -50 -125 -306 -53 -430 58 -100 183 -97 243 5 26 44
27 52 27 181 0 122 -2 139 -23 178 -13 23 -37 52 -55 62 -38 23 -101 25 -139
4z m108 -85 c16 -17 20 -40 22 -132 2 -65 -1 -127 -7 -149 -20 -64 -77 -75
-105 -20 -33 66 -26 263 10 303 23 25 56 24 80 -2z"/>
<path d="M3913 2644 l-23 -5 0 -250 0 -249 45 0 45 0 0 85 0 85 28 0 c47 0
106 21 135 48 71 67 56 226 -26 269 -32 16 -158 27 -204 17z m156 -91 c26 -22
37 -78 22 -116 -13 -33 -50 -52 -85 -43 -25 6 -26 8 -26 91 l0 85 34 0 c19 0
43 -8 55 -17z"/>
<path d="M1750 2600 l0 -40 50 0 50 0 0 -170 0 -170 -50 0 -50 0 0 -40 0 -40
140 0 140 0 0 40 0 40 -45 0 -45 0 0 170 0 170 45 0 45 0 0 40 0 40 -140 0
-140 0 0 -40z"/>
<path d="M2100 2390 l0 -250 40 0 39 0 3 158 3 157 31 -60 c17 -33 48 -104 69
-157 38 -97 39 -98 72 -98 l33 0 0 250 0 250 -40 0 -40 0 -1 -142 c0 -140 -1
-142 -16 -108 -9 19 -39 83 -66 143 l-50 107 -39 0 -38 0 0 -250z"/>
<path d="M2830 2390 l0 -250 40 0 40 0 0 110 0 110 80 0 80 0 0 40 0 40 -80 0
-80 0 0 60 0 60 95 0 95 0 0 40 0 40 -135 0 -135 0 0 -250z"/>
<path d="M3190 2390 l0 -250 140 0 140 0 0 40 0 40 -95 0 -95 0 0 210 0 210
-45 0 -45 0 0 -250z"/>
<path d="M3530 2600 l0 -40 50 0 50 0 0 -170 0 -170 -50 0 -50 0 0 -40 0 -40
140 0 140 0 0 40 0 40 -45 0 -45 0 0 170 0 170 45 0 45 0 0 40 0 40 -140 0
-140 0 0 -40z"/>
<path d="M725 2380 c-41 -16 -58 -47 -53 -93 6 -55 80 -212 106 -226 59 -31
132 8 132 69 0 37 -75 212 -99 233 -22 19 -61 27 -86 17z"/>
<path d="M4241 2203 c-15 -16 -48 -68 -75 -116 -37 -69 -46 -94 -41 -116 11
-52 67 -81 117 -62 29 11 85 92 125 178 22 48 23 54 9 87 -25 60 -90 74 -135
29z"/>
<path d="M1072 1777 c-15 -16 -22 -36 -22 -62 0 -36 7 -46 67 -104 114 -109
153 -122 204 -72 28 28 36 61 23 95 -3 8 -44 49 -90 91 -74 65 -90 75 -123 75
-26 0 -44 -7 -59 -23z"/>
<path d="M3744 1625 c-122 -91 -140 -130 -85 -186 43 -43 75 -38 157 21 92 66
110 81 123 108 26 51 -20 122 -79 122 -18 0 -58 -23 -116 -65z"/>
<path d="M1674 1406 c-54 -24 -68 -101 -25 -140 28 -26 187 -86 226 -86 71 0
112 85 68 139 -13 15 -219 103 -236 101 -1 -1 -16 -7 -33 -14z"/>
<path d="M3127 1321 c-104 -32 -131 -55 -130 -108 2 -56 42 -87 102 -80 68 9
191 52 214 76 32 31 28 87 -7 117 -34 30 -66 29 -179 -5z"/>
<path d="M2354 1240 c-57 -22 -70 -95 -26 -139 25 -26 35 -28 136 -35 94 -6
112 -4 139 12 57 33 60 111 5 145 -27 17 -222 30 -254 17z"/>
</g>
</svg>
